<svg width="20" height="20" viewBox="0 0 20 20" fill="none" xmlns="http://www.w3.org/2000/svg">
<path d="M2.64115 7.46603H16.8911M5.80782 2.71603V4.29937M13.7245 2.71603V4.29937M5.01615 10.6327H6.59948M5.01615 13.7994H6.59948M8.97448 10.6327H10.5578M8.97448 13.7994H10.5578M12.9328 10.6327H14.5161M12.9328 13.7994H14.5161M5.17448 16.966H14.3578C15.2446 16.966 15.6879 16.966 16.0266 16.7935C16.3246 16.6417 16.5668 16.3994 16.7186 16.1015C16.8911 15.7628 16.8911 15.3194 16.8911 14.4327V6.8327C16.8911 5.94595 16.8911 5.50258 16.7186 5.16388C16.5668 4.86596 16.3246 4.62374 16.0266 4.47194C15.6879 4.29937 15.2446 4.29937 14.3578 4.29937H5.17448C4.28773 4.29937 3.84436 4.29937 3.50567 4.47194C3.20774 4.62374 2.96552 4.86596 2.81372 5.16388C2.64115 5.50258 2.64115 5.94595 2.64115 6.8327V14.4327C2.64115 15.3194 2.64115 15.7628 2.81372 16.1015C2.96552 16.3994 3.20774 16.6417 3.50567 16.7935C3.84436 16.966 4.28773 16.966 5.17448 16.966Z" stroke="#6C727F" stroke-width="2" stroke-linecap="round" stroke-linejoin="round"/>
</svg>
