<svg width="19" height="19" viewBox="0 0 19 19" fill="none" xmlns="http://www.w3.org/2000/svg">
<path opacity="0.2" d="M7.03962 9.12681C7.61444 10.3139 8.57432 11.2713 9.76285 11.8431C9.85052 11.8846 9.94749 11.9025 10.0442 11.8952C10.1409 11.8878 10.2341 11.8554 10.3145 11.8012L12.0601 10.6351C12.1373 10.5828 12.2264 10.5508 12.3192 10.5423C12.412 10.5337 12.5054 10.5488 12.5908 10.5862L15.8587 11.9897C15.9704 12.0362 16.0637 12.1181 16.1243 12.2228C16.1848 12.3275 16.2093 12.4493 16.1939 12.5693C16.0903 13.3777 15.6957 14.1206 15.0839 14.6591C14.4722 15.1977 13.6851 15.4948 12.8701 15.495C10.3515 15.495 7.93608 14.4945 6.15516 12.7136C4.37424 10.9326 3.37373 8.51719 3.37373 5.99859C3.37391 5.18357 3.67106 4.39654 4.20957 3.78478C4.74808 3.17301 5.49105 2.77842 6.29946 2.67485C6.41944 2.65943 6.54117 2.68389 6.6459 2.74445C6.75062 2.80502 6.83253 2.89833 6.87902 3.01001L8.28253 6.28487C8.31903 6.36891 8.33429 6.46063 8.32699 6.55196C8.31968 6.64328 8.29003 6.73141 8.24063 6.80857L7.07453 8.58216C7.02261 8.66238 6.99214 8.75458 6.98603 8.84993C6.97992 8.94529 6.99837 9.04062 7.03962 9.12681Z" fill="#6C727F"/>
<path fill-rule="evenodd" clip-rule="evenodd" d="M6.22847 2.12072C6.4699 2.08975 6.71483 2.13898 6.92555 2.26084C7.13533 2.38216 7.29963 2.56877 7.39341 2.79215L8.7949 6.0623C8.7951 6.06276 8.7953 6.06323 8.79551 6.0637C8.86807 6.23139 8.89839 6.41432 8.88382 6.59646C8.86921 6.77911 8.80989 6.95537 8.71111 7.10969L8.70743 7.11544L7.54351 8.88564C8.06296 9.95699 8.92933 10.8213 10.0019 11.3381L10.0042 11.3366L11.7485 10.1714C11.9033 10.0669 12.0819 10.0031 12.268 9.98599C12.454 9.96885 12.6413 9.99893 12.8126 10.0734C12.8133 10.0737 12.814 10.074 12.8147 10.0743L16.0768 11.4754C16.3 11.5692 16.4866 11.7334 16.6078 11.9431C16.7297 12.1538 16.7789 12.3988 16.7479 12.6402C16.6271 13.5833 16.1668 14.4501 15.453 15.0784C14.7393 15.7067 13.8211 16.0533 12.8703 16.0536C10.2035 16.0536 7.64584 14.9942 5.76016 13.1085C3.87448 11.2228 2.81511 8.6653 2.81511 5.99854C2.81533 5.04769 3.162 4.12937 3.79026 3.41564C4.41848 2.70196 5.28539 2.24159 6.22847 2.12072ZM7.03962 9.12677L6.53573 9.36791C6.45324 9.19553 6.41634 9.00487 6.42856 8.81416C6.44079 8.62344 6.50173 8.43906 6.60556 8.27862L6.60775 8.27523L7.77014 6.50732L7.76908 6.50488L6.36557 3.23002C5.69386 3.31733 5.0765 3.6453 4.62887 4.15383C4.18014 4.6636 3.93252 5.31941 3.93234 5.99854M7.03962 9.12677L6.53685 9.37023C7.16668 10.6709 8.21841 11.7199 9.52068 12.3464L9.52379 12.3479C9.69913 12.4309 9.89307 12.4669 10.0865 12.4522C10.2795 12.4375 10.4653 12.373 10.6258 12.2649C10.6262 12.2647 10.6266 12.2644 10.627 12.2641L12.3704 11.0995L15.6383 12.5029L15.6391 12.5033C15.5518 13.175 15.2234 13.7922 14.7148 14.2398C14.2051 14.6885 13.5493 14.9361 12.8701 14.9363M3.93234 5.99854C3.93237 8.36895 4.87403 10.6424 6.55016 12.3185C8.22629 13.9946 10.4997 14.9363 12.8701 14.9363" fill="#6C727F"/>
</svg>
